<svg aria-hidden="true" style="position:absolute;width:0;height:0;overflow:hidden" xmlns="http://www.w3.org/2000/svg">
  <defs>
    <symbol id="logo" viewBox="0 0 107 32">
      <path fill="#ff6b0a" style="fill:var(--color1, #ff6b0a)" d="M106.667 0v32H59.536V0h47.131zM74.42 8.811v13.927l.001.044a.842.842 0 0 1-.001.087c-.007.08.015.128.107.115a.485.485 0 0 1 .066-.001l.033.001h3.582c.075.001.112.001.129-.017s.016-.051.014-.116l-.001-.078V8.83l-.001-.033a.485.485 0 0 1 .001-.066c.008-.082-.02-.125-.109-.115-.018.002-.036.001-.054.001l-.028-.001h-3.55l-.062-.001c-.065-.001-.098-.001-.114.015s-.016.049-.015.116l.001.064zm19.579-.194h-5.863c-1.954 0-3.908 0-5.86-.002h-.133c-.066-.003-.089.028-.084.089a.486.486 0 0 1 0 .054v3.398c0 .072-.001.107.017.124s.051.017.118.016H85.923c.12 0 .18 0 .209.03s.029.087.029.2v10.335c-.001.059-.001.09.014.106.017.018.052.017.127.017h3.571c.111 0 .166 0 .193-.028s.027-.08.027-.186V12.488l-.001-.059c-.001-.063-.001-.097.015-.114.018-.019.055-.018.133-.018h3.798c.162 0 .162 0 .164-.159V8.759c.001-.072.001-.108-.016-.126s-.053-.017-.123-.016L94 8.618z"/>
      <path fill="#010101" style="fill:var(--color2, #010101)" d="m47.132 0 12.403 16-12.403 16H0V0h47.132zm-26.38 13.662.215.174a.371.371 0 0 0 .106-.107.256.256 0 0 1 .02-.026c.254-.302.507-.606.76-.91.507-.606 1.012-1.212 1.518-1.82.101-.122.097-.177-.018-.276a12.617 12.617 0 0 0-.277-.233c-.803-.657-1.685-1.17-2.684-1.467a9.43 9.43 0 0 0-2.043-.353c-.905-.061-1.802-.031-2.691.174-3.112.716-5.434 3.292-5.707 6.594a7.795 7.795 0 0 0 .225 2.638c.519 1.96 1.645 3.461 3.434 4.45.975.539 2.03.823 3.14.912.94.076 1.87.018 2.788-.189 1.553-.35 2.925-1.056 4.146-2.067a.333.333 0 0 0 .137-.289c-.004-1.572-.004-3.145-.003-4.717v-1.179a.66.66 0 0 0-.003-.062c-.003-.046-.006-.092.006-.134.015-.049-.012-.077-.037-.104-.021-.022-.042-.044-.039-.077.007-.054-.03-.062-.073-.062h-6.556l-.038.001c-.026.001-.052.002-.077-.001-.066-.007-.087.026-.083.087a.657.657 0 0 1 .001.077l-.001.038V17.839l-.001.074c-.001.063-.002.096.014.112s.052.017.125.016H19.772c.072-.001.107-.001.124.016.016.016.015.048.014.11l-.001.078v.679c0 .308 0 .311-.279.445-.818.391-1.681.503-2.573.391-.991-.123-1.784-.591-2.365-1.401-.378-.527-.585-1.122-.662-1.763-.097-.818.002-1.605.373-2.348.448-.892 1.125-1.533 2.098-1.827.682-.207 1.373-.153 2.056-.003.619.135 1.159.437 1.657.816.182.138.359.281.539.427zm18.346-2.98c-1.528-1.39-3.348-2.052-5.229-2.066-.869.002-1.518.072-2.207.251-1.998.521-3.563 1.638-4.602 3.422-1.067 1.83-1.283 3.793-.687 5.812.667 2.257 2.089 3.9 4.29 4.815 1.69.701 3.44.795 5.206.332 2.051-.537 3.624-1.725 4.654-3.578.869-1.562 1.102-3.238.778-4.987-.291-1.572-1.017-2.919-2.203-4zm-8.437 3.528c.666-1.227 1.729-1.815 2.762-1.838 2.094-.005 3.464 1.173 3.837 2.806.226.984.125 1.94-.358 2.834-.57 1.05-1.458 1.661-2.654 1.797-1.156.133-2.165-.194-2.99-1.025a3.579 3.579 0 0 1-.983-1.914c-.172-.928-.066-1.827.386-2.66z"/>
    </symbol>
    <symbol id="javascript" viewBox="0 0 32 32">
      <path fill="#f7df1e" style="fill:var(--color3, #f7df1e)" d="M0 0h32v32H0V0z"/>
      <path style="fill:var(--color4, #000)" d="m8.414 26.741 2.449-1.482c.473.838.902 1.546 1.933 1.546.988 0 1.611-.387 1.611-1.89V14.69h3.007v10.267c0 3.115-1.826 4.532-4.489 4.532-2.406 0-3.802-1.246-4.511-2.75zm10.634-.322 2.448-1.418c.645 1.053 1.482 1.826 2.964 1.826 1.246 0 2.041-.623 2.041-1.482 0-1.031-.816-1.396-2.191-1.997l-.752-.323c-2.17-.923-3.609-2.083-3.609-4.532 0-2.256 1.718-3.974 4.404-3.974 1.912 0 3.287.666 4.274 2.406l-2.341 1.504c-.516-.924-1.074-1.289-1.933-1.289-.881 0-1.439.558-1.439 1.289 0 .902.558 1.268 1.847 1.826l.752.322c2.556 1.096 3.995 2.212 3.995 4.726 0 2.707-2.127 4.189-4.983 4.189-2.792 0-4.597-1.332-5.477-3.072z"/>
    </symbol>
    <symbol id="icon-email" viewBox="0 0 39 32">
<path d="M34.909 0h-31.030c-2.139 0-3.879 1.74-3.879 3.879v23.273c0 2.139 1.74 3.879 3.879 3.879h31.030c2.139 0 3.879-1.74 3.879-3.879v-23.273c0-2.139-1.74-3.879-3.879-3.879zM34.909 3.879v0.991l-15.515 12.069-15.515-12.067v-0.993h31.030zM3.879 27.152v-17.369l14.324 11.142c0.34 0.267 0.759 0.412 1.191 0.412s0.851-0.145 1.191-0.412l14.324-11.142 0.004 17.369h-31.034z"></path>
</symbol>
<symbol id="icon-phone" viewBox="0 0 32 32">
<path d="M24.143 16.891c-0.152-0.153-0.333-0.274-0.532-0.356s-0.413-0.125-0.628-0.125-0.429 0.043-0.628 0.125c-0.199 0.083-0.38 0.204-0.532 0.356l-2.616 2.616c-1.213-0.361-3.476-1.182-4.91-2.616s-2.255-3.697-2.616-4.91l2.616-2.616c0.152-0.152 0.273-0.333 0.356-0.532s0.125-0.412 0.125-0.628c0-0.216-0.042-0.429-0.125-0.628s-0.204-0.38-0.356-0.532l-6.564-6.564c-0.152-0.153-0.333-0.274-0.532-0.356s-0.412-0.125-0.628-0.125c-0.216 0-0.429 0.043-0.628 0.125s-0.38 0.204-0.532 0.356l-4.45 4.45c-0.624 0.624-0.975 1.48-0.962 2.355 0.038 2.337 0.656 10.453 7.053 16.85s14.513 7.014 16.852 7.053h0.046c0.866 0 1.685-0.341 2.306-0.962l4.45-4.45c0.152-0.152 0.274-0.333 0.356-0.532s0.125-0.413 0.125-0.628-0.043-0.429-0.125-0.628c-0.082-0.199-0.204-0.38-0.356-0.532l-6.564-6.566zM23.935 27.906c-2.048-0.034-9.055-0.584-14.561-6.091-5.524-5.524-6.059-12.556-6.091-14.563l3.29-3.29 4.244 4.244-2.122 2.122c-0.193 0.193-0.335 0.431-0.413 0.692s-0.090 0.538-0.034 0.805c0.039 0.189 1.003 4.664 3.727 7.388s7.199 3.687 7.388 3.727c0.267 0.057 0.544 0.047 0.805-0.031s0.499-0.22 0.691-0.414l2.123-2.122 4.244 4.244-3.292 3.29z"></path>
</symbol>
<symbol id="icon-location" viewBox="0 0 26 32">
<path d="M12.642 18.963c3.486 0 6.321-2.835 6.321-6.321s-2.835-6.321-6.321-6.321c-3.486 0-6.321 2.835-6.321 6.321s2.835 6.321 6.321 6.321zM12.642 9.481c1.743 0 3.161 1.417 3.161 3.161s-1.417 3.16-3.161 3.16c-1.743 0-3.16-1.417-3.16-3.16s1.417-3.161 3.16-3.161z"></path>
<path d="M11.726 31.311c0.267 0.191 0.588 0.294 0.917 0.294s0.649-0.103 0.916-0.294c0.48-0.34 11.771-8.492 11.725-18.669 0-6.971-5.671-12.642-12.642-12.642s-12.642 5.671-12.642 12.634c-0.046 10.185 11.245 18.337 11.725 18.677zM12.642 3.16c5.229 0 9.481 4.252 9.481 9.489 0.033 7.013-6.934 13.31-9.481 15.376-2.546-2.067-9.515-8.366-9.482-15.384 0-5.229 4.252-9.482 9.482-9.482z"></path>
</symbol>
<symbol id="icon-yes" viewBox="0 0 21 32">
<path d="M3.771 30.437l15.219-15.219-15.219-15.219-3.771 3.771 11.448 11.448-11.448 11.448 3.771 3.771z"></path>
</symbol>
  </defs>
</svg>
